<?xml version="1.0" encoding="UTF-8" standalone="no"?>
<svg
   xmlns:dc="http://purl.org/dc/elements/1.1/"
   xmlns:cc="http://creativecommons.org/ns#"
   xmlns:rdf="http://www.w3.org/1999/02/22-rdf-syntax-ns#"
   xmlns:svg="http://www.w3.org/2000/svg"
   xmlns="http://www.w3.org/2000/svg"
   xmlns:sodipodi="http://sodipodi.sourceforge.net/DTD/sodipodi-0.dtd"
   xmlns:inkscape="http://www.inkscape.org/namespaces/inkscape"
   version="1.0"
   width="141.12241mm"
   height="141.097mm"
   id="svg3374"
   inkscape:version="0.91 r13725"
   viewBox="0 0 141.12241 141.097"
   sodipodi:docname="dp-mark.svg"
   inkscape:export-filename="/home/cpeel/Downloads/pgdp_images/dp-mark-400px-white.png"
   inkscape:export-xdpi="71.989998"
   inkscape:export-ydpi="71.989998">
  <metadata
     id="metadata3389">
    <rdf:RDF>
      <cc:Work
         rdf:about="">
        <dc:format>image/svg+xml</dc:format>
        <dc:type
           rdf:resource="http://purl.org/dc/dcmitype/StillImage" />
        <dc:title />
      </cc:Work>
    </rdf:RDF>
  </metadata>
  <sodipodi:namedview
     pagecolor="#ffffff"
     bordercolor="#666666"
     borderopacity="1"
     objecttolerance="10"
     gridtolerance="10"
     guidetolerance="10"
     inkscape:pageopacity="0"
     inkscape:pageshadow="2"
     inkscape:window-width="1414"
     inkscape:window-height="1048"
     id="namedview3387"
     inkscape:document-units="mm"
     showgrid="false"
     inkscape:zoom="1"
     inkscape:cx="295.33719"
     inkscape:cy="251.39511"
     inkscape:window-x="1114"
     inkscape:window-y="257"
     inkscape:window-maximized="0"
     inkscape:current-layer="svg3374" />
  <defs
     id="defs3376">
    <pattern
       id="WMFhbasepattern"
       patternUnits="userSpaceOnUse"
       width="6"
       height="6"
       x="0"
       y="0" />
    <filter
       style="color-interpolation-filters:sRGB;"
       inkscape:label="Drop Shadow"
       id="filter3607">
      <feFlood
         flood-opacity="0.498039"
         flood-color="rgb(0,0,0)"
         result="flood"
         id="feFlood3609" />
      <feComposite
         in="flood"
         in2="SourceGraphic"
         operator="in"
         result="composite1"
         id="feComposite3611" />
      <feGaussianBlur
         in="composite1"
         stdDeviation="2"
         result="blur"
         id="feGaussianBlur3613" />
      <feOffset
         dx="-3.5"
         dy="4.3"
         result="offset"
         id="feOffset3615" />
      <feComposite
         in="SourceGraphic"
         in2="offset"
         operator="over"
         result="composite2"
         id="feComposite3617" />
    </filter>
  </defs>
  <path
     style="fill:#2285e8;fill-opacity:1;fill-rule:evenodd;stroke:none;filter:url(#filter3607)"
     d="m 123.79801,82.928893 -0.009,1.728047 -0.0883,1.666522 -0.18513,1.586936 -0.26445,1.525411 -0.33528,1.446106 -0.42333,1.384018 -0.48486,1.304996 -0.55569,1.243189 -0.62597,1.172633 -0.68778,1.093329 -0.74958,1.031522 -0.79389,0.961249 -0.85542,0.890413 -0.90819,0.820136 -0.9525,0.7493 -0.98749,0.67902 -1.04056,0.61694 -1.06708,0.53792 -1.10236,0.4761 -1.12889,0.39681 -1.16388,0.335 -1.18167,0.26444 -1.20819,0.19417 -1.21694,0.13208 -1.23472,0.0531 -1.24347,-0.009 -1.25222,-0.0796 -1.25222,-0.14986 -1.260969,-0.22042 -1.25222,-0.28194 -1.252223,-0.36152 -1.234723,-0.42334 -5.247075,-2.9272 0.476391,23.75295 0.08805,0.17639 0.09709,0.16735 0.114582,0.16764 0.123331,0.14986 0.132362,0.14986 0.141111,0.14986 0.14986,0.14111 0.16764,0.13237 0.16764,0.12333 0.185138,0.12333 0.185138,0.11486 0.202918,0.11459 0.202635,0.10583 0.211667,0.10583 0.220698,0.0968 0.220415,0.0883 0.229165,0.0968 0.229446,0.0883 0.237914,0.0793 0.238195,0.0793 0.493889,0.14986 0.502638,0.14111 0.511387,0.14111 0.511386,0.12333 0.502638,0.11458 0.50292,0.11458 0.123331,2.02805 -0.643749,-0.0793 -0.679026,-0.0793 -0.705556,-0.0705 -0.740833,-0.0706 -0.76708,-0.0618 -0.78486,-0.0618 -0.820138,-0.0528 -0.828887,-0.0528 -0.855415,-0.0443 -0.873196,-0.0353 -0.881662,-0.0353 -0.890693,-0.0353 -0.908474,-0.0263 -0.908191,-0.0178 -0.917222,-0.0175 -0.925971,-0.009 -0.91694,-0.009 -0.917222,0 -0.908191,0 -0.908474,0.009 -0.899442,0.009 -0.890693,0.0262 -0.872914,0.0178 -0.855415,0.0265 -0.846667,0.0353 -0.820138,0.044 -0.793609,0.044 -0.776111,0.044 -0.749582,0.0618 -0.714304,0.0528 -0.687776,0.0705 -0.652498,0.0706 0.07056,-1.45486 0.0175,-0.044 0.05306,-0.0615 0.08805,-0.0531 0.114582,-0.0618 0.141111,-0.0706 0.16764,-0.0703 0.193887,-0.0706 0.211666,-0.0883 0.476392,-0.16736 0.528884,-0.18514 0.564444,-0.20292 0.581943,-0.22041 0.300002,-0.11458 0.290971,-0.11459 0.282222,-0.12361 0.282222,-0.12333 0.264443,-0.12333 0.264724,-0.13236 0.237913,-0.13237 0.229447,-0.14111 0.211667,-0.13208 0.193886,-0.14111 0.158609,-0.14111 0.141111,-0.14986 0.114865,-0.14111 0.08805,-0.14986 0.04403,-0.15861 0.01778,-0.14986 -0.3175,-49.577972 -0.01778,-0.608472 -0.07056,-0.572911 -0.0968,-0.546664 -0.141111,-0.520136 -0.176389,-0.476109 -0.202918,-0.449862 -0.237913,-0.423051 -0.273473,-0.388055 -0.300003,-0.361527 -0.326248,-0.326249 -0.352778,-0.29972 -0.370276,-0.273191 -0.405553,-0.238196 -0.423333,-0.211666 -0.440832,-0.185138 -0.458611,-0.158609 -0.476391,-0.132362 -0.493606,-0.105834 -0.50292,-0.07055 -0.520136,-0.05278 -0.529167,-0.01778 -0.537915,0 -0.546665,0.02653 -0.555695,0.06181 -0.564445,0.0793 -0.555413,0.09708 -0.564444,0.13208 -0.564445,0.14986 -0.564444,0.176389 -0.564163,0.194169 -0.555695,0.220415 -0.546665,0.246662 -0.05306,-0.0175 -0.07056,-0.0087 -0.105833,-0.009 -0.13208,0.009 -0.344029,0.02625 -0.440831,0.04431 -0.520418,0.06152 -0.581942,0.08834 -0.643749,0.08805 -0.696807,0.105833 -0.714304,0.105833 -0.749582,0.114582 -0.749583,0.105834 -0.749582,0.105833 -0.731802,0.0968 -0.705556,0.07959 -0.661246,0.07027 -0.617503,0.05306 -0.13208,-0.432082 -0.123613,-0.432082 -0.114582,-0.432083 -0.09708,-0.440831 -0.08805,-0.4318 -0.08834,-0.432082 -0.0793,-0.432082 -0.0793,-0.432082 -0.08834,-0.432083 -0.08805,-0.432082 -0.08834,-0.4318 -0.0968,-0.432082 -0.114582,-0.432082 -0.123614,-0.432082 -0.132362,-0.440832 -0.158609,-0.432082 -0.202917,-0.07055 -0.158609,-0.03528 -0.06181,0 -0.06181,0 -0.05278,0.009 -0.04403,0.0087 -0.04431,0.02653 -0.03528,0.03528 -0.03528,0.03528 -0.03528,0.05278 -0.07056,0.114582 -0.07055,0.14986 -0.0968,0.185138 -0.114583,0.220415 -0.141111,0.255694 -0.18542,0.290971 -0.105833,0.158891 -0.123331,0.167358 -0.141111,0.176389 -0.14986,0.185137 -0.16764,0.193887 -0.185138,0.202918 -0.202918,0.211667 -0.229164,0.229164 -2.05486,1.340273 -2.028049,1.084298 -1.993054,0.855416 -1.940277,0.625969 -1.895969,0.405553 -1.842911,0.193887 -1.790136,0 -1.71958,-0.193887 -1.666804,-0.370276 -1.5875,-0.537915 -1.516663,-0.696525 -1.428608,-0.846384 -1.358054,-0.987496 -1.260969,-1.119857 -1.172972,-1.234158 -1.075859,-1.340274 -0.97886,-1.437075 -0.86422,-1.53416 -0.758388,-1.613747 -0.652582,-1.674989 -0.520305,-1.737077 -0.405638,-1.789854 -0.273389,-1.825131 -0.149916,-1.860409 0,-1.877906 0.132277,-1.886938 0.273389,-1.886656 0.43211,-1.86944 0.582027,-1.860126 0.740749,-1.816383 0.899498,-1.789853 1.07586,-1.728047 0.617304,-0.837635 0.687861,-0.776111 0.740748,-0.722771 0.802386,-0.661247 0.855416,-0.608471 0.908473,-0.546665 0.943469,-0.493889 0.979029,-0.4318 1.022773,-0.379306 1.040554,-0.317218 1.075831,-0.264724 1.084862,-0.202692 1.111109,-0.149889 1.111109,-0.097 1.119858,-0.03528 1.128888,0.01764 1.111109,0.07936 1.119858,0.132249 1.093611,0.185053 1.08458,0.246944 1.058334,0.29972 1.031804,0.361527 1.005276,0.414585 0.969997,0.467077 0.925971,0.529167 0.881945,0.581942 0.837635,0.643467 0.776112,0.687775 0.723053,0.749583 0.661529,0.811106 0.590691,0.864165 0.520418,0.91694 -0.46736,-22.086627 -0.0087,-0.317415 -0.02653,-0.290971 -0.03528,-0.273304 -0.04403,-0.246888 -0.06181,-0.229249 -0.06181,-0.202777 -0.0793,-0.193971 -0.08834,-0.176361 -0.0968,-0.158693 -0.105833,-0.141083 -0.114583,-0.13225 -0.132362,-0.11461 -0.132362,-0.105805 -0.141111,-0.08817 -0.14986,-0.07936 -0.158609,-0.07053 -0.16764,-0.07053 -0.176389,-0.05292 -0.185138,-0.04408 -0.194169,-0.04408 -0.405553,-0.07053 -0.423333,-0.06172 -0.458611,-0.04408 -0.476109,-0.06172 -0.502638,-0.06172 -0.520418,-0.07936 -0.44958,-2.9272374 16.825807,-2.3453231 0.167358,1.6399651 0.141111,1.7193254 0.114864,1.789826 0.07931,1.86038 0.05277,1.913298 0.03528,1.95738 0.009,2.010269 -0.009,2.045519 -0.0175,2.07199 -0.02653,2.098436 -0.04403,2.116074 -0.04403,2.124766 -0.105833,4.249984 -0.09709,4.196927 -0.03528,2.071793 -0.02653,2.036798 -0.0175,1.992771 0,1.957211 0.0175,1.895687 0.03528,1.842629 0.05306,1.772356 0.08805,1.701517 0.114583,1.622496 0.150142,1.53416 0.176106,1.437075 0.211667,1.340274 0.255976,1.225409 0.29972,1.119857 0.334997,0.996245 0.396805,0.864164 0.255975,0.387774 0.326249,0.344029 0.396805,0.290971 0.44958,0.237913 0.511669,0.202918 0.564444,0.16764 0.61722,0.123331 0.652498,0.08805 0.696807,0.05306 0.731802,0.0175 0.767362,-0.0087 0.793609,-0.03528 0.811107,-0.06181 0.837917,-0.08805 0.846667,-0.105833 0.864164,-0.123331 0.864165,-0.141111 0.872913,-0.14986 0.873196,-0.16764 0.864164,-0.176389 0.855416,-0.185138 0.837635,-0.193887 0.820138,-0.193886 0.80264,-0.194169 1.516662,-0.379025 1.384583,-0.361526 1.208193,-0.3175 1.014024,-0.255694 0.02653,0.308751 0.02653,0.352496 0.0175,0.388055 0.01778,0.423334 0.0175,0.44958 0.009,0.46736 0.0087,0.484858 0.0087,0.484857 0.0087,0.48514 0.009,0.484858 0.0175,0.46736 0.0087,0.440831 0.01778,0.423051 0.0175,0.396805 0.02653,0.352778 0.03528,0.308468 1.675553,-1.181382 1.666804,-1.058051 1.649025,-0.925689 1.640275,-0.802358 1.613747,-0.687775 1.587219,-0.564445 1.560972,-0.44958 1.54319,-0.334997 1.49917,-0.220416 1.47263,-0.114582 1.43764,-0.009 1.40208,0.08834 1.35805,0.193887 1.305,0.29972 1.27,0.388056 1.21694,0.484857 1.16417,0.573194 1.11111,0.661246 1.05805,0.749583 0.99653,0.837353 0.93472,0.908191 0.87319,0.996527 0.80236,1.0668 0.73208,1.146104 0.66125,1.21666 0.58222,1.278467 0.51139,1.349022 0.42333,1.419578 0.35278,1.472353 0.2557,1.53416 0.17638,1.587218 0.0793,1.648742 z m -24.392189,-14.715631 0.634999,0.01778 0.62597,0.06181 0.61751,0.105551 0.59972,0.141111 0.58194,0.185138 0.57319,0.220415 0.55542,0.255694 0.53791,0.290971 0.52917,0.326249 0.50264,0.361526 0.49389,0.396805 0.46736,0.423333 0.44986,0.44958 0.44083,0.484858 0.41458,0.511386 0.38806,0.537916 0.37902,0.573193 0.35278,0.590691 0.33528,0.608189 0.30847,0.643749 0.29097,0.661247 0.26473,0.679027 0.24694,0.696524 0.22042,0.722771 0.19388,0.740833 0.16764,0.758049 0.14986,0.76708 0.12362,0.78486 0.0881,0.802358 0.0705,0.811107 0.044,0.828886 0.009,0.837636 -0.009,0.828604 -0.044,0.820138 -0.0618,0.811107 -0.0968,0.784578 -0.11487,0.776111 -0.14111,0.758049 -0.16736,0.740833 -0.19417,0.722771 -0.21166,0.696807 -0.23792,0.678744 -0.26472,0.661247 -0.28222,0.643749 -0.30847,0.608189 -0.32625,0.590973 -0.34403,0.572911 -0.37028,0.537916 -0.38805,0.511386 -0.41459,0.493889 -0.42333,0.458329 -0.44958,0.432082 -0.46736,0.396805 -0.48514,0.379024 -0.49389,0.334998 -0.52013,0.308751 -0.53792,0.273191 -0.54695,0.238196 -0.57319,0.211661 -0.58194,0.16736 -0.59972,0.132356 -0.60847,0.0968 -0.62597,0.0618 -0.643749,0.0178 -0.635,-0.0178 -0.61722,-0.0618 -0.608473,-0.10583 -0.582225,-0.132076 -0.573193,-0.176388 -0.555413,-0.220415 -0.529167,-0.246945 -0.511669,-0.28194 -0.502638,-0.3175 -0.476109,-0.352777 -0.458611,-0.379025 -0.440831,-0.414584 -0.414584,-0.44958 -0.405554,-0.46736 -0.379306,-0.502356 -0.361527,-0.529166 -0.343747,-0.555414 -0.3175,-0.581942 -0.300002,-0.59944 -0.273191,-0.635 -0.264724,-0.643467 -0.229165,-0.679026 -0.220415,-0.687776 -0.194169,-0.714022 -0.167358,-0.731802 -0.150142,-0.749583 -0.123331,-0.758331 -0.105834,-0.784577 -0.0793,-0.793609 -0.06181,-0.811107 -0.03528,-0.819856 -0.0087,-0.837635 0.0087,-0.837636 0.03528,-0.820137 0.05278,-0.811107 0.07959,-0.793609 0.105834,-0.775829 0.123331,-0.76708 0.141111,-0.7493 0.16764,-0.723053 0.185138,-0.714305 0.211666,-0.687493 0.229165,-0.670278 0.255693,-0.652498 0.273473,-0.616937 0.290972,-0.608471 0.3175,-0.573194 0.334997,-0.555413 0.352778,-0.528885 0.370558,-0.493888 0.396804,-0.476109 0.414303,-0.440831 0.432364,-0.405554 0.458329,-0.388055 0.46736,-0.343747 0.493889,-0.3175 0.511669,-0.282222 0.528884,-0.246662 0.546947,-0.211667 0.564444,-0.176389 0.590691,-0.141111 0.599723,-0.0968 0.617224,-0.06181 0.64374,-0.01778 z m -56.756296,-33.283878 0.626252,0.02625 0.61722,0.06181 0.599722,0.09708 0.581942,0.141111 0.564444,0.185138 0.555414,0.211384 0.529166,0.255694 0.520418,0.282222 0.502638,0.326249 0.48514,0.352778 0.46736,0.387773 0.44958,0.414584 0.432082,0.44958 0.414585,0.476109 0.388055,0.502638 0.370276,0.528884 0.352778,0.555414 0.334997,0.581942 0.3175,0.608471 0.290971,0.625969 0.264725,0.652498 0.255693,0.669995 0.220416,0.687776 0.211666,0.714304 0.176389,0.722771 0.158609,0.749583 0.141111,0.758331 0.105834,0.775829 0.08833,0.784577 0.06181,0.802358 0.04403,0.811389 0.0087,0.819856 -0.0087,0.819855 -0.04403,0.811389 -0.06181,0.802358 -0.08833,0.784578 -0.105834,0.775829 -0.141111,0.758331 -0.158609,0.740551 -0.176389,0.731802 -0.211666,0.705556 -0.220416,0.696524 -0.255693,0.669996 -0.264725,0.643748 -0.290971,0.634718 -0.3175,0.59944 -0.334997,0.581942 -0.352778,0.555414 -0.370276,0.537915 -0.388055,0.502638 -0.414585,0.476109 -0.432082,0.44958 -0.44958,0.414584 -0.46736,0.387774 -0.48514,0.352778 -0.502638,0.3175 -0.520418,0.290971 -0.529166,0.255693 -0.555414,0.211384 -0.564444,0.185138 -0.581942,0.141111 -0.599722,0.09708 -0.61722,0.06181 -0.626252,0.02625 -0.625968,-0.02625 -0.599723,-0.06181 -0.581942,-0.114582 -0.573193,-0.14986 -0.537916,-0.185138 -0.529166,-0.229447 -0.511669,-0.273191 -0.484858,-0.29972 -0.46736,-0.33528 -0.441113,-0.379021 -0.432083,-0.405554 -0.405553,-0.440831 -0.388056,-0.46736 -0.370275,-0.493607 -0.344029,-0.529166 -0.326249,-0.555414 -0.308751,-0.573193 -0.290971,-0.608189 -0.273191,-0.625969 -0.246945,-0.652497 -0.229446,-0.670278 -0.211667,-0.687494 -0.185138,-0.705555 -0.16764,-0.731802 -0.14986,-0.740551 -0.132362,-0.758332 -0.114582,-0.775828 -0.08805,-0.78486 -0.07055,-0.793327 -0.04403,-0.802358 -0.03528,-0.820138 -0.009,-0.819855 0.009,-0.828887 0.03528,-0.802358 0.04403,-0.793326 0.07055,-0.776111 0.08805,-0.76708 0.114582,-0.7493 0.132362,-0.723054 0.14986,-0.714022 0.16764,-0.687776 0.185138,-0.679026 0.211667,-0.643467 0.229446,-0.635 0.246945,-0.608189 0.273191,-0.581942 0.290971,-0.555696 0.308751,-0.537633 0.326249,-0.511387 0.344029,-0.476108 0.370275,-0.458612 0.388056,-0.423051 0.405553,-0.396804 0.432083,-0.370276 0.441113,-0.33528 0.46736,-0.29972 0.484858,-0.273191 0.511669,-0.238195 0.529166,-0.202636 0.537916,-0.16764 0.573193,-0.132362 0.581942,-0.0968 0.599723,-0.06181 0.625968,-0.0175 z"
     id="path3379"
     inkscape:connector-curvature="0" />
  <path
     style="fill:none;stroke:#007dc1;stroke-width:0.00881856px;stroke-linecap:round;stroke-linejoin:round;stroke-miterlimit:4;stroke-dasharray:none;stroke-opacity:1"
     d="m 123.79801,82.928893 -0.009,1.728047 -0.0883,1.666522 -0.18513,1.586936 -0.26445,1.525411 -0.33528,1.446106 -0.42333,1.384018 -0.48486,1.304996 -0.55569,1.243189 -0.62597,1.172633 -0.68778,1.093329 -0.74958,1.031522 -0.79389,0.961249 -0.85542,0.890413 -0.90819,0.820136 -0.9525,0.7493 -0.98749,0.67902 -1.04056,0.61694 -1.06708,0.53792 -1.10236,0.4761 -1.12889,0.39681 -1.16388,0.335 -1.18167,0.26444 -1.20819,0.19417 -1.21694,0.13208 -1.23472,0.0531 -1.24347,-0.009 -1.25222,-0.0796 -1.25222,-0.14986 -1.260969,-0.22042 -1.25222,-0.28194 -1.252223,-0.36152 -1.234723,-0.42334 -5.247075,-2.9272 0.476391,23.75295 0.08805,0.17639 0.09709,0.16735 0.114582,0.16764 0.123331,0.14986 0.132362,0.14986 0.141111,0.14986 0.14986,0.14111 0.16764,0.13237 0.16764,0.12333 0.185138,0.12333 0.185138,0.11486 0.202918,0.11459 0.202635,0.10583 0.211667,0.10583 0.220698,0.0968 0.220415,0.0883 0.229165,0.0968 0.229446,0.0883 0.237914,0.0793 0.238195,0.0793 0.493889,0.14986 0.502638,0.14111 0.511387,0.14111 0.511386,0.12333 0.502638,0.11458 0.50292,0.11458 0.123331,2.02805 -0.643749,-0.0793 -0.679026,-0.0793 -0.705556,-0.0705 -0.740833,-0.0706 -0.76708,-0.0618 -0.78486,-0.0618 -0.820138,-0.0528 -0.828887,-0.0528 -0.855415,-0.0443 -0.873196,-0.0353 -0.881662,-0.0353 -0.890693,-0.0353 -0.908474,-0.0263 -0.908191,-0.0178 -0.917222,-0.0175 -0.925971,-0.009 -0.91694,-0.009 -0.917222,0 -0.908191,0 -0.908474,0.009 -0.899442,0.009 -0.890693,0.0262 -0.872914,0.0178 -0.855415,0.0265 -0.846667,0.0353 -0.820138,0.044 -0.793609,0.044 -0.776111,0.044 -0.749582,0.0618 -0.714304,0.0528 -0.687776,0.0705 -0.652498,0.0706 0.07056,-1.45486 0.0175,-0.044 0.05306,-0.0615 0.08805,-0.0531 0.114582,-0.0618 0.141111,-0.0706 0.16764,-0.0703 0.193887,-0.0706 0.211666,-0.0883 0.476392,-0.16736 0.528884,-0.18514 0.564444,-0.20292 0.581943,-0.22041 0.300002,-0.11458 0.290971,-0.11459 0.282222,-0.12361 0.282222,-0.12333 0.264443,-0.12333 0.264724,-0.13236 0.237913,-0.13237 0.229447,-0.14111 0.211667,-0.13208 0.193886,-0.14111 0.158609,-0.14111 0.141111,-0.14986 0.114865,-0.14111 0.08805,-0.14986 0.04403,-0.15861 0.01778,-0.14986 -0.3175,-49.577972 -0.01778,-0.608472 -0.07056,-0.572911 -0.0968,-0.546664 -0.141111,-0.520136 -0.176389,-0.476109 -0.202918,-0.449862 -0.237913,-0.423051 -0.273473,-0.388055 -0.300003,-0.361527 -0.326248,-0.326249 -0.352778,-0.29972 -0.370276,-0.273191 -0.405553,-0.238196 -0.423333,-0.211666 -0.440832,-0.185138 -0.458611,-0.158609 -0.476391,-0.132362 -0.493606,-0.105834 -0.50292,-0.07055 -0.520136,-0.05278 -0.529167,-0.01778 -0.537915,0 -0.546665,0.02653 -0.555695,0.06181 -0.564445,0.0793 -0.555413,0.09708 -0.564444,0.13208 -0.564445,0.14986 -0.564444,0.176389 -0.564163,0.194169 -0.555695,0.220415 -0.546665,0.246662 -0.05306,-0.0175 -0.07056,-0.0087 -0.105833,-0.009 -0.13208,0.009 -0.344029,0.02625 -0.440831,0.04431 -0.520418,0.06152 -0.581942,0.08834 -0.643749,0.08805 -0.696807,0.105833 -0.714304,0.105833 -0.749582,0.114582 -0.749583,0.105834 -0.749582,0.105833 -0.731802,0.0968 -0.705556,0.07959 -0.661246,0.07027 -0.617503,0.05306 -0.13208,-0.432082 -0.123613,-0.432082 -0.114582,-0.432083 -0.09708,-0.440831 -0.08805,-0.4318 -0.08834,-0.432082 -0.0793,-0.432082 -0.0793,-0.432082 -0.08834,-0.432083 -0.08805,-0.432082 -0.08834,-0.4318 -0.0968,-0.432082 -0.114582,-0.432082 -0.123614,-0.432082 -0.132362,-0.440832 -0.158609,-0.432082 -0.202917,-0.07055 -0.158609,-0.03528 -0.06181,0 -0.06181,0 -0.05278,0.009 -0.04403,0.0087 -0.04431,0.02653 -0.03528,0.03528 -0.03528,0.03528 -0.03528,0.05278 -0.07056,0.114582 -0.07055,0.14986 -0.0968,0.185138 -0.114583,0.220415 -0.141111,0.255694 -0.18542,0.290971 -0.105833,0.158891 -0.123331,0.167358 -0.141111,0.176389 -0.14986,0.185137 -0.16764,0.193887 -0.185138,0.202918 -0.202918,0.211667 -0.229164,0.229164 -2.05486,1.340273 -2.028049,1.084298 -1.993054,0.855416 -1.940277,0.625969 -1.895969,0.405553 -1.842911,0.193887 -1.790136,0 -1.71958,-0.193887 -1.666804,-0.370276 -1.5875,-0.537915 -1.516663,-0.696525 -1.428608,-0.846384 -1.358054,-0.987496 -1.260969,-1.119857 -1.172972,-1.234158 -1.075859,-1.340274 -0.97886,-1.437075 -0.86422,-1.53416 -0.758388,-1.613747 -0.652582,-1.674989 -0.520305,-1.737077 -0.405638,-1.789854 -0.273389,-1.825131 -0.149916,-1.860409 0,-1.877906 0.132277,-1.886938 0.273389,-1.886656 0.43211,-1.86944 0.582027,-1.860126 0.740749,-1.816383 0.899498,-1.789853 1.07586,-1.728047 0.617304,-0.837635 0.687861,-0.776111 0.740748,-0.722771 0.802386,-0.661247 0.855416,-0.608471 0.908473,-0.546665 0.943469,-0.493889 0.979029,-0.4318 1.022773,-0.379306 1.040554,-0.317218 1.075831,-0.264724 1.084862,-0.202692 1.111109,-0.149889 1.111109,-0.097 1.119858,-0.03528 1.128888,0.01764 1.111109,0.07936 1.119858,0.132249 1.093611,0.185053 1.08458,0.246944 1.058334,0.29972 1.031804,0.361527 1.005276,0.414585 0.969997,0.467077 0.925971,0.529167 0.881945,0.581942 0.837635,0.643467 0.776112,0.687775 0.723053,0.749583 0.661529,0.811106 0.590691,0.864165 0.520418,0.91694 -0.46736,-22.086627 -0.0087,-0.317415 -0.02653,-0.290971 -0.03528,-0.273304 -0.04403,-0.246888 -0.06181,-0.229249 -0.06181,-0.202777 -0.0793,-0.193971 -0.08834,-0.176361 -0.0968,-0.158693 -0.105833,-0.141083 -0.114583,-0.13225 -0.132362,-0.11461 -0.132362,-0.105805 -0.141111,-0.08817 -0.14986,-0.07936 -0.158609,-0.07053 -0.16764,-0.07053 -0.176389,-0.05292 -0.185138,-0.04408 -0.194169,-0.04408 -0.405553,-0.07053 -0.423333,-0.06172 -0.458611,-0.04408 -0.476109,-0.06172 -0.502638,-0.06172 -0.520418,-0.07936 -0.44958,-2.9272374 16.825807,-2.3453231 0.167358,1.6399651 0.141111,1.7193254 0.114864,1.789826 0.07931,1.86038 0.05277,1.913298 0.03528,1.95738 0.009,2.010269 -0.009,2.045519 -0.0175,2.07199 -0.02653,2.098436 -0.04403,2.116074 -0.04403,2.124766 -0.105833,4.249984 -0.09709,4.196927 -0.03528,2.071793 -0.02653,2.036798 -0.0175,1.992771 0,1.957211 0.0175,1.895687 0.03528,1.842629 0.05306,1.772356 0.08805,1.701517 0.114583,1.622496 0.150142,1.53416 0.176106,1.437075 0.211667,1.340274 0.255976,1.225409 0.29972,1.119857 0.334997,0.996245 0.396805,0.864164 0.255975,0.387774 0.326249,0.344029 0.396805,0.290971 0.44958,0.237913 0.511669,0.202918 0.564444,0.16764 0.61722,0.123331 0.652498,0.08805 0.696807,0.05306 0.731802,0.0175 0.767362,-0.0087 0.793609,-0.03528 0.811107,-0.06181 0.837917,-0.08805 0.846667,-0.105833 0.864164,-0.123331 0.864165,-0.141111 0.872913,-0.14986 0.873196,-0.16764 0.864164,-0.176389 0.855416,-0.185138 0.837635,-0.193887 0.820138,-0.193886 0.80264,-0.194169 1.516662,-0.379025 1.384583,-0.361526 1.208193,-0.3175 1.014024,-0.255694 0.02653,0.308751 0.02653,0.352496 0.0175,0.388055 0.01778,0.423334 0.0175,0.44958 0.009,0.46736 0.0087,0.484858 0.0087,0.484857 0.0087,0.48514 0.009,0.484858 0.0175,0.46736 0.0087,0.440831 0.01778,0.423051 0.0175,0.396805 0.02653,0.352778 0.03528,0.308468 1.675553,-1.181382 1.666804,-1.058051 1.649025,-0.925689 1.640275,-0.802358 1.613747,-0.687775 1.587222,-0.564445 1.560969,-0.44958 1.54319,-0.334997 1.49917,-0.220416 1.47263,-0.114582 1.43764,-0.009 1.40208,0.08834 1.35805,0.193887 1.305,0.29972 1.27,0.388056 1.21694,0.484857 1.16417,0.573194 1.11111,0.661246 1.05805,0.749583 0.99653,0.837353 0.93472,0.908191 0.87319,0.996527 0.80236,1.0668 0.73208,1.146104 0.66125,1.21666 0.58222,1.278467 0.51139,1.349022 0.42333,1.419578 0.35278,1.472353 0.2557,1.53416 0.17638,1.587218 0.0793,1.648742"
     id="path3381"
     inkscape:connector-curvature="0" />
  <path
     style="fill:none;stroke:#007dc1;stroke-width:0.00881856px;stroke-linecap:round;stroke-linejoin:round;stroke-miterlimit:4;stroke-dasharray:none;stroke-opacity:1"
     d="m 99.405821,68.213262 0.634999,0.01778 0.62597,0.06181 0.61751,0.105551 0.59972,0.141111 0.58194,0.185138 0.57319,0.220415 0.55542,0.255694 0.53791,0.290971 0.52917,0.326249 0.50264,0.361526 0.49389,0.396805 0.46736,0.423333 0.44986,0.44958 0.44083,0.484858 0.41458,0.511386 0.38806,0.537916 0.37902,0.573193 0.35278,0.590691 0.33528,0.608189 0.30847,0.643749 0.29097,0.661247 0.26473,0.679027 0.24694,0.696524 0.22042,0.722771 0.19388,0.740833 0.16764,0.758049 0.14986,0.76708 0.12362,0.78486 0.0881,0.802358 0.0705,0.811107 0.044,0.828886 0.009,0.837636 -0.009,0.828604 -0.044,0.820138 -0.0618,0.811107 -0.0968,0.784578 -0.11487,0.776111 -0.14111,0.758049 -0.16736,0.740833 -0.19417,0.722771 -0.21166,0.696807 -0.23792,0.678744 -0.26472,0.661247 -0.28222,0.643749 -0.30847,0.608189 -0.32625,0.590973 -0.34403,0.572911 -0.37028,0.537916 -0.38805,0.511386 -0.41459,0.493889 -0.42333,0.458329 -0.44958,0.432082 -0.46736,0.396805 -0.48514,0.379024 -0.49389,0.334998 -0.52013,0.308751 -0.53792,0.273191 -0.54695,0.238196 -0.57319,0.211661 -0.58194,0.16736 -0.59972,0.132356 -0.60847,0.0968 -0.62597,0.0618 -0.643749,0.0178 -0.635,-0.0178 -0.61722,-0.0618 -0.608473,-0.10583 -0.582225,-0.132076 -0.573193,-0.176388 -0.555413,-0.220415 -0.529167,-0.246945 -0.511669,-0.28194 -0.502638,-0.3175 -0.476109,-0.352777 -0.458611,-0.379025 -0.440831,-0.414584 -0.414584,-0.44958 -0.405554,-0.46736 -0.379306,-0.502356 -0.361527,-0.529166 -0.343747,-0.555414 -0.3175,-0.581942 -0.300002,-0.59944 -0.273191,-0.635 -0.264724,-0.643467 -0.229165,-0.679026 -0.220415,-0.687776 -0.194169,-0.714022 -0.167358,-0.731802 -0.150142,-0.749583 -0.123331,-0.758331 -0.105834,-0.784577 -0.0793,-0.793609 -0.06181,-0.811107 -0.03528,-0.819856 -0.0087,-0.837635 0.0087,-0.837636 0.03528,-0.820137 0.05278,-0.811107 0.07959,-0.793609 0.105834,-0.775829 0.123331,-0.76708 0.141111,-0.7493 0.16764,-0.723053 0.185138,-0.714305 0.211666,-0.687493 0.229165,-0.670278 0.255693,-0.652498 0.273473,-0.616937 0.290972,-0.608471 0.3175,-0.573194 0.334997,-0.555413 0.352778,-0.528885 0.370558,-0.493888 0.396804,-0.476109 0.414303,-0.440831 0.432364,-0.405554 0.458329,-0.388055 0.46736,-0.343747 0.493889,-0.3175 0.511669,-0.282222 0.528884,-0.246662 0.546947,-0.211667 0.564444,-0.176389 0.590691,-0.141111 0.599723,-0.0968 0.617225,-0.06181 0.64374,-0.01778"
     id="path3383"
     inkscape:connector-curvature="0" />
  <path
     style="fill:none;stroke:#007dc1;stroke-width:0.00881856px;stroke-linecap:round;stroke-linejoin:round;stroke-miterlimit:4;stroke-dasharray:none;stroke-opacity:1"
     d="m 42.649525,34.929384 0.626252,0.02625 0.61722,0.06181 0.599722,0.09708 0.581942,0.141111 0.564444,0.185138 0.555414,0.211384 0.529166,0.255694 0.520418,0.282222 0.502638,0.326249 0.48514,0.352778 0.46736,0.387773 0.44958,0.414584 0.432082,0.44958 0.414585,0.476109 0.388055,0.502638 0.370276,0.528884 0.352778,0.555414 0.334997,0.581942 0.3175,0.608471 0.290971,0.625969 0.264725,0.652498 0.255693,0.669995 0.220416,0.687776 0.211666,0.714304 0.176389,0.722771 0.158609,0.749583 0.141111,0.758331 0.105834,0.775829 0.08833,0.784577 0.06181,0.802358 0.04403,0.811389 0.0087,0.819856 -0.0087,0.819855 -0.04403,0.811389 -0.06181,0.802358 -0.08833,0.784578 -0.105834,0.775829 -0.141111,0.758331 -0.158609,0.740551 -0.176389,0.731802 -0.211666,0.705556 -0.220416,0.696524 -0.255693,0.669996 -0.264725,0.643748 -0.290971,0.634718 -0.3175,0.59944 -0.334997,0.581942 -0.352778,0.555414 -0.370276,0.537915 -0.388055,0.502638 -0.414585,0.476109 -0.432082,0.44958 -0.44958,0.414584 -0.46736,0.387774 -0.48514,0.352778 -0.502638,0.3175 -0.520418,0.290971 -0.529166,0.255693 -0.555414,0.211384 -0.564444,0.185138 -0.581942,0.141111 -0.599722,0.09708 -0.61722,0.06181 -0.626252,0.02625 -0.625968,-0.02625 -0.599723,-0.06181 -0.581942,-0.114582 -0.573193,-0.14986 -0.537916,-0.185138 -0.529166,-0.229447 -0.511669,-0.273191 -0.484858,-0.29972 -0.46736,-0.33528 -0.441113,-0.379021 -0.432083,-0.405554 -0.405553,-0.440831 -0.388056,-0.46736 -0.370275,-0.493607 -0.344029,-0.529166 -0.326249,-0.555414 -0.308751,-0.573193 -0.290971,-0.608189 -0.273191,-0.625969 -0.246945,-0.652497 -0.229446,-0.670278 -0.211667,-0.687494 -0.185138,-0.705555 -0.16764,-0.731802 -0.14986,-0.740551 -0.132362,-0.758332 -0.114582,-0.775828 -0.08805,-0.78486 -0.07055,-0.793327 -0.04403,-0.802358 -0.03528,-0.820138 -0.009,-0.819855 0.009,-0.828887 0.03528,-0.802358 0.04403,-0.793326 0.07055,-0.776111 0.08805,-0.76708 0.114582,-0.7493 0.132362,-0.723054 0.14986,-0.714022 0.16764,-0.687776 0.185138,-0.679026 0.211667,-0.643467 0.229446,-0.635 0.246945,-0.608189 0.273191,-0.581942 0.290971,-0.555696 0.308751,-0.537633 0.326249,-0.511387 0.344029,-0.476108 0.370275,-0.458612 0.388056,-0.423051 0.405553,-0.396804 0.432083,-0.370276 0.441113,-0.33528 0.46736,-0.29972 0.484858,-0.273191 0.511669,-0.238195 0.529166,-0.202636 0.537916,-0.16764 0.573193,-0.132362 0.581942,-0.0968 0.599723,-0.06181 0.625968,-0.0175"
     id="path3385"
     inkscape:connector-curvature="0" />
</svg>
